<svg xmlns="http://www.w3.org/2000/svg" viewBox="0 0 64 64" fill="none">
  <circle cx="32" cy="32" r="30" fill="#8B5CF6" opacity="0.1"/>
  <path d="M18 22C18 19.7909 19.7909 18 22 18H28C30.2091 18 32 19.7909 32 22V28C32 30.2091 30.2091 32 28 32H22C19.7909 32 18 30.2091 18 28V22Z" fill="#8B5CF6"/>
  <path d="M36 22C36 19.7909 37.7909 18 40 18H46C48.2091 18 50 19.7909 50 22V28C50 30.2091 48.2091 32 46 32H40C37.7909 32 36 30.2091 36 28V22Z" fill="#A78BFA"/>
  <path d="M18 40C18 37.7909 19.7909 36 22 36H28C30.2091 36 32 37.7909 32 40V46C32 48.2091 30.2091 50 28 50H22C19.7909 50 18 48.2091 18 46V40Z" fill="#C4B5FD"/>
  <path d="M36 40C36 37.7909 37.7909 36 40 36H46C48.2091 36 50 37.7909 50 40V46C50 48.2091 48.2091 50 46 50H40C37.7909 50 36 48.2091 36 46V40Z" fill="#DDD6FE"/>
  <circle cx="25" cy="25" r="2" fill="white"/>
  <circle cx="43" cy="25" r="2" fill="white"/>
  <circle cx="25" cy="43" r="2" fill="white"/>
  <circle cx="43" cy="43" r="2" fill="white"/>
</svg>

