<svg xmlns="http://www.w3.org/2000/svg" viewBox="0 0 64 64" fill="none">
  <circle cx="32" cy="32" r="30" fill="#1DA1F2" opacity="0.1"/>
  <path d="M48 20C46.5 20.8 44.8 21.3 43 21.5C44.9 20.4 46.3 18.6 47 16.4C45.3 17.5 43.4 18.2 41.4 18.6C39.8 16.9 37.4 16 34.8 16C29.8 16 25.8 20 25.8 25C25.8 25.6 25.9 26.2 26 26.8C21.4 26.6 17.3 24.4 14.4 21C13.8 21.9 13.5 22.9 13.5 24C13.5 26.1 14.6 27.9 16.2 28.9C14.9 28.8 13.7 28.4 12.8 27.8C12.8 27.9 12.8 28 12.8 28.1C12.8 32.5 15.9 36.2 20 37C19.4 37.2 18.7 37.3 18 37.3C17.5 37.3 17 37.2 16.5 37.1C17.5 40.7 20.7 43.4 24.5 43.4C21.4 45.8 17.6 47.2 13.5 47.2C12.9 47.2 12.3 47.2 11.7 47.1C15.6 49.8 20.2 51.4 25.2 51.4C34.8 51.4 40.4 37.4 40.4 24.7C40.4 24.4 40.4 24.1 40.4 23.8C42.3 22.5 43.9 20.9 45.2 19C43.4 19.7 41.5 20.2 39.5 20.4C41.6 19.2 43.1 17.2 43.8 14.8C45.8 16.1 47.5 17.8 48.8 19.8L48 20Z" fill="#1DA1F2"/>
</svg>

